<?xml version="1.0" encoding="UTF-8" standalone="no"?>
<svg
   viewBox="0 0 200 200"
   overflow="visible"
   version="1.1"
   id="svg3"
   width="200"
   height="200"
   xmlns:inkscape="http://www.inkscape.org/namespaces/inkscape"
   xmlns:sodipodi="http://sodipodi.sourceforge.net/DTD/sodipodi-0.dtd"
   xmlns="http://www.w3.org/2000/svg"
   xmlns:svg="http://www.w3.org/2000/svg">
  <defs
     id="defs3" />
  <sodipodi:namedview
     id="namedview3"
     pagecolor="#ffffff"
     bordercolor="#000000"
     borderopacity="0.25"
     inkscape:showpageshadow="2"
     inkscape:pageopacity="0.0"
     inkscape:pagecheckerboard="0"
     inkscape:deskcolor="#d1d1d1"
     inkscape:current-layer="svg3" />
  <!-- Logo centered: translate to origin, scale, then translate to viewBox center -->
  <g transform="translate(100, 100) scale(1.8) translate(-102, -68)">
    <path
       d="m 56.349358,76.476257 h -0.2592 v 33.523193 c 0,2.4192 1.9872,4.4064 4.4064,4.4064 h 34.5168 c -0.3024,-20.951999 -17.496,-37.929593 -38.664,-37.929593 z m 0,-27.648 h -0.2592 v 14.256 c 28.4688,0.1296 51.624012,23.0256 51.926412,51.321593 h 14.7744 C 122.53177,78.204257 92.853358,48.828257 56.349358,48.828257 Z M 143.74297,110.04265 V 79.759457 c -10.0224,-24.5376 -30.1968,-43.9344 -55.296012,-52.9632 h -27.9504 c -2.4192,0 -4.4064,1.9872 -4.4064,4.4064 v 4.2768 c 43.804812,0.1296 79.444812,35.424 79.704012,78.969593 h 3.5424 c 2.4624,-0.0432 4.4064,-1.9872 4.4064,-4.4064 z m -11.5344,-71.020793 c 4.0608,4.0608 8.208,9.2016 11.5344,13.7376 v -21.6 a 4.35024,4.35024 0 0 0 -4.3632,-4.3632 h -22.248 c 5.184,3.5856 10.5408,7.6896 15.0768,12.2256 z"
       fill="#660066"
       id="path3"
       style="stroke-width:0.432" />
  </g>
</svg>
