<?xml version="1.0" encoding="UTF-8"?>
<svg width="32" height="32" version="1.1" viewBox="0 0 32 32" xmlns="http://www.w3.org/2000/svg"><defs><linearGradient id="calGrad" x1="4" x2="28" y1="31" y2="1" gradientUnits="userSpaceOnUse"><stop stop-color="#1B5E20" offset="0"/><stop stop-color="#66BB6A" offset="1"/></linearGradient></defs><g fill-rule="evenodd"><rect x="4" y="6" width="24" height="22" rx="3" ry="3" fill="url(#calGrad)"/><rect x="4" y="6" width="24" height="7" rx="3" ry="0" fill="#2E7D32"/><rect x="9" y="3" width="3" height="6" rx="1" ry="1" fill="#fafafa"/><rect x="20" y="3" width="3" height="6" rx="1" ry="1" fill="#fafafa"/><g fill="#fafafa"><rect x="8" y="16" width="4" height="3" rx="0.5"/><rect x="14" y="16" width="4" height="3" rx="0.5"/><rect x="20" y="16" width="4" height="3" rx="0.5"/><rect x="8" y="21" width="4" height="3" rx="0.5"/><rect x="14" y="21" width="4" height="3" rx="0.5"/><rect x="20" y="21" width="4" height="3" rx="0.5"/></g></g></svg>
