<?xml version="1.0" encoding="UTF-8"?>
<svg xmlns="http://www.w3.org/2000/svg" xmlns:xlink="http://www.w3.org/1999/xlink" width="2.03" height="2.03" viewBox="0 0 2.03 2.03">
<defs>
<linearGradient id="linear-pattern-0" gradientUnits="userSpaceOnUse" x1="-6874" y1="2774" x2="-6636" y2="2497" gradientTransform="matrix(0.000508354, -0.00108466, -0.00109167, -0.000505089, 7.948186, -5.871413)">
<stop offset="0" stop-color="rgb(96.078431%, 59.215686%, 13.72549%)" stop-opacity="1"/>
<stop offset="0.312" stop-color="rgb(96.470588%, 59.607843%, 13.333333%)" stop-opacity="1"/>
<stop offset="0.838" stop-color="rgb(90.980392%, 46.666667%, 14.901961%)" stop-opacity="1"/>
</linearGradient>
<linearGradient id="linear-pattern-1" gradientUnits="userSpaceOnUse" x1="-8631" y1="2805" x2="-6937" y2="2805" gradientTransform="matrix(0.000508354, -0.00108466, -0.00109167, -0.000505089, 7.948186, -5.871413)">
<stop offset="0.323" stop-color="rgb(61.176471%, 12.54902%, 38.823529%)" stop-opacity="1"/>
<stop offset="0.63" stop-color="rgb(78.431373%, 12.54902%, 21.568627%)" stop-opacity="1"/>
<stop offset="0.751" stop-color="rgb(80%, 12.941176%, 20.784314%)" stop-opacity="1"/>
<stop offset="1" stop-color="rgb(90.980392%, 46.666667%, 14.901961%)" stop-opacity="1"/>
</linearGradient>
<linearGradient id="linear-pattern-2" gradientUnits="userSpaceOnUse" x1="-8426" y1="2635" x2="-7417" y2="2635" gradientTransform="matrix(0.000508354, -0.00108466, -0.00109167, -0.000505089, 7.948186, -5.871413)">
<stop offset="0" stop-color="rgb(15.686275%, 14.901961%, 38.039216%)" stop-opacity="1"/>
<stop offset="0.0955" stop-color="rgb(40%, 18.039216%, 54.901961%)" stop-opacity="1"/>
<stop offset="0.788" stop-color="rgb(61.960784%, 12.54902%, 39.215686%)" stop-opacity="1"/>
<stop offset="0.949" stop-color="rgb(80%, 12.54902%, 19.607843%)" stop-opacity="1"/>
</linearGradient>
<linearGradient id="linear-pattern-3" gradientUnits="userSpaceOnUse" x1="-8536" y1="2821" x2="-6842" y2="2821" gradientTransform="matrix(0.000508354, -0.00108466, -0.00109167, -0.000505089, 7.948186, -5.871413)">
<stop offset="0.323" stop-color="rgb(61.176471%, 12.54902%, 38.823529%)" stop-opacity="1"/>
<stop offset="0.63" stop-color="rgb(78.431373%, 12.54902%, 21.568627%)" stop-opacity="1"/>
<stop offset="0.751" stop-color="rgb(80%, 12.941176%, 20.784314%)" stop-opacity="1"/>
<stop offset="1" stop-color="rgb(90.980392%, 46.666667%, 14.901961%)" stop-opacity="1"/>
</linearGradient>
<linearGradient id="linear-pattern-4" gradientUnits="userSpaceOnUse" x1="-8412" y1="2798" x2="-7522" y2="2798" gradientTransform="matrix(0.000508354, -0.00108466, -0.00109167, -0.000505089, 7.948186, -5.871413)">
<stop offset="0" stop-color="rgb(15.686275%, 14.901961%, 38.039216%)" stop-opacity="1"/>
<stop offset="0.0955" stop-color="rgb(40%, 18.039216%, 54.901961%)" stop-opacity="1"/>
<stop offset="0.788" stop-color="rgb(61.960784%, 12.54902%, 39.215686%)" stop-opacity="1"/>
<stop offset="0.949" stop-color="rgb(80%, 12.54902%, 19.607843%)" stop-opacity="1"/>
</linearGradient>
<linearGradient id="linear-pattern-5" gradientUnits="userSpaceOnUse" x1="-8536" y1="2645" x2="-6842" y2="2645" gradientTransform="matrix(0.000508354, -0.00108466, -0.00109167, -0.000505089, 7.948186, -5.871413)">
<stop offset="0.323" stop-color="rgb(61.176471%, 12.54902%, 38.823529%)" stop-opacity="1"/>
<stop offset="0.63" stop-color="rgb(78.431373%, 12.54902%, 21.568627%)" stop-opacity="1"/>
<stop offset="0.751" stop-color="rgb(80%, 12.941176%, 20.784314%)" stop-opacity="1"/>
<stop offset="1" stop-color="rgb(90.980392%, 46.666667%, 14.901961%)" stop-opacity="1"/>
</linearGradient>
<linearGradient id="linear-pattern-6" gradientUnits="userSpaceOnUse" x1="-8641" y1="2654" x2="-6947" y2="2654" gradientTransform="matrix(0.000508354, -0.00108466, -0.00109167, -0.000505089, 7.948186, -5.871413)">
<stop offset="0.323" stop-color="rgb(61.176471%, 12.54902%, 38.823529%)" stop-opacity="1"/>
<stop offset="0.63" stop-color="rgb(78.431373%, 12.54902%, 21.568627%)" stop-opacity="1"/>
<stop offset="0.751" stop-color="rgb(80%, 12.941176%, 20.784314%)" stop-opacity="1"/>
<stop offset="1" stop-color="rgb(90.980392%, 46.666667%, 14.901961%)" stop-opacity="1"/>
</linearGradient>
</defs>
<path fill-rule="nonzero" fill="url(#linear-pattern-0)" d="M 1.519531 0.0195312 C 1.488281 0.0390625 1.4375 0.0898438 1.375 0.167969 L 1.429688 0.273438 C 1.472656 0.21875 1.511719 0.164062 1.554688 0.121094 C 1.558594 0.117188 1.558594 0.117188 1.558594 0.117188 C 1.558594 0.117188 1.554688 0.121094 1.554688 0.121094 C 1.539062 0.136719 1.5 0.183594 1.4375 0.277344 C 1.496094 0.273438 1.589844 0.261719 1.664062 0.25 C 1.683594 0.125 1.640625 0.0703125 1.640625 0.0703125 C 1.640625 0.0703125 1.585938 -0.0195312 1.519531 0.0195312 Z M 1.519531 0.0195312 "/>
<path fill-rule="nonzero" fill="rgb(74.117647%, 12.54902%, 18.039216%)" fill-opacity="1" d="M 1.328125 0.929688 C 1.320312 0.929688 1.3125 0.933594 1.304688 0.933594 C 1.308594 0.933594 1.3125 0.933594 1.316406 0.933594 C 1.320312 0.929688 1.324219 0.929688 1.328125 0.929688 Z M 1.328125 0.929688 "/>
<path fill-rule="nonzero" fill="rgb(0%, 0%, 0%)" fill-opacity="1" d="M 1.328125 0.929688 C 1.320312 0.929688 1.3125 0.933594 1.304688 0.933594 C 1.308594 0.933594 1.3125 0.933594 1.316406 0.933594 C 1.320312 0.929688 1.324219 0.929688 1.328125 0.929688 Z M 1.328125 0.929688 "/>
<path fill-rule="nonzero" fill="rgb(74.117647%, 12.54902%, 18.039216%)" fill-opacity="1" d="M 1.347656 0.835938 C 1.347656 0.835938 1.347656 0.835938 1.351562 0.835938 C 1.355469 0.835938 1.359375 0.832031 1.363281 0.832031 C 1.359375 0.832031 1.351562 0.835938 1.347656 0.835938 Z M 1.347656 0.835938 "/>
<path fill-rule="nonzero" fill="rgb(0%, 0%, 0%)" fill-opacity="1" d="M 1.347656 0.835938 C 1.347656 0.835938 1.347656 0.835938 1.351562 0.835938 C 1.355469 0.835938 1.359375 0.832031 1.363281 0.832031 C 1.359375 0.832031 1.351562 0.835938 1.347656 0.835938 Z M 1.347656 0.835938 "/>
<path fill-rule="nonzero" fill="url(#linear-pattern-1)" d="M 1.261719 0.554688 C 1.277344 0.523438 1.296875 0.492188 1.3125 0.460938 C 1.332031 0.425781 1.351562 0.394531 1.371094 0.367188 C 1.371094 0.363281 1.375 0.363281 1.375 0.359375 C 1.394531 0.332031 1.414062 0.300781 1.429688 0.273438 L 1.375 0.167969 C 1.371094 0.171875 1.363281 0.175781 1.359375 0.183594 C 1.34375 0.203125 1.328125 0.226562 1.308594 0.25 C 1.289062 0.277344 1.269531 0.304688 1.246094 0.332031 C 1.226562 0.359375 1.207031 0.390625 1.1875 0.417969 C 1.171875 0.445312 1.15625 0.472656 1.140625 0.5 C 1.136719 0.5 1.136719 0.5 1.136719 0.5 L 1.210938 0.648438 C 1.226562 0.617188 1.246094 0.585938 1.261719 0.554688 Z M 1.261719 0.554688 "/>
<path fill-rule="nonzero" fill="url(#linear-pattern-2)" d="M 0.917969 1.386719 C 0.90625 1.414062 0.898438 1.441406 0.886719 1.46875 C 0.886719 1.472656 0.886719 1.472656 0.886719 1.472656 C 0.886719 1.476562 0.882812 1.480469 0.882812 1.484375 C 0.875 1.503906 0.871094 1.519531 0.855469 1.558594 C 0.878906 1.570312 0.898438 1.59375 0.914062 1.625 C 0.914062 1.59375 0.898438 1.566406 0.875 1.542969 C 0.984375 1.546875 1.078125 1.519531 1.125 1.441406 C 1.128906 1.433594 1.132812 1.425781 1.136719 1.417969 C 1.117188 1.445312 1.089844 1.457031 1.035156 1.453125 C 1.035156 1.453125 1.035156 1.457031 1.035156 1.457031 C 1.035156 1.457031 1.035156 1.453125 1.035156 1.453125 C 1.113281 1.421875 1.152344 1.390625 1.183594 1.335938 C 1.191406 1.324219 1.199219 1.308594 1.207031 1.292969 C 1.140625 1.359375 1.066406 1.378906 0.984375 1.367188 L 0.921875 1.371094 C 0.921875 1.378906 0.917969 1.382812 0.917969 1.386719 Z M 0.917969 1.386719 "/>
<path fill-rule="nonzero" fill="url(#linear-pattern-3)" d="M 0.945312 1.253906 C 0.960938 1.21875 0.972656 1.183594 0.988281 1.148438 C 1 1.117188 1.015625 1.082031 1.027344 1.050781 C 1.042969 1.015625 1.058594 0.984375 1.070312 0.949219 C 1.085938 0.914062 1.101562 0.882812 1.117188 0.847656 C 1.132812 0.8125 1.148438 0.78125 1.164062 0.75 C 1.167969 0.734375 1.175781 0.722656 1.179688 0.710938 C 1.191406 0.691406 1.199219 0.671875 1.210938 0.652344 C 1.210938 0.652344 1.210938 0.648438 1.210938 0.648438 L 1.136719 0.5 C 1.136719 0.503906 1.136719 0.503906 1.132812 0.507812 C 1.117188 0.535156 1.097656 0.566406 1.082031 0.59375 C 1.0625 0.625 1.046875 0.65625 1.03125 0.6875 C 1.015625 0.710938 1.003906 0.738281 0.988281 0.765625 C 0.988281 0.769531 0.984375 0.777344 0.980469 0.78125 C 0.964844 0.816406 0.949219 0.847656 0.9375 0.878906 C 0.921875 0.914062 0.910156 0.949219 0.898438 0.980469 C 0.890625 1 0.882812 1.019531 0.875 1.039062 C 0.871094 1.058594 0.867188 1.074219 0.859375 1.089844 C 0.847656 1.128906 0.839844 1.167969 0.832031 1.207031 L 0.90625 1.355469 C 0.917969 1.332031 0.925781 1.304688 0.9375 1.277344 C 0.941406 1.269531 0.945312 1.261719 0.945312 1.253906 Z M 0.945312 1.253906 "/>
<path fill-rule="nonzero" fill="url(#linear-pattern-4)" d="M 0.828125 1.210938 C 0.820312 1.261719 0.8125 1.308594 0.808594 1.355469 L 0.808594 1.359375 C 0.785156 1.320312 0.722656 1.285156 0.722656 1.285156 C 0.769531 1.351562 0.804688 1.414062 0.808594 1.480469 C 0.785156 1.484375 0.75 1.476562 0.710938 1.460938 C 0.753906 1.5 0.78125 1.507812 0.792969 1.511719 C 0.757812 1.515625 0.71875 1.539062 0.679688 1.566406 C 0.738281 1.546875 0.78125 1.535156 0.816406 1.542969 C 0.761719 1.6875 0.710938 1.851562 0.660156 2.019531 C 0.675781 2.015625 0.683594 2.003906 0.691406 1.992188 C 0.699219 1.960938 0.761719 1.757812 0.855469 1.492188 C 0.859375 1.484375 0.863281 1.476562 0.863281 1.46875 C 0.867188 1.46875 0.867188 1.464844 0.867188 1.460938 C 0.878906 1.433594 0.886719 1.40625 0.898438 1.378906 C 0.902344 1.371094 0.902344 1.363281 0.90625 1.355469 L 0.832031 1.207031 C 0.832031 1.210938 0.828125 1.210938 0.828125 1.214844 Z M 0.828125 1.210938 "/>
<path fill-rule="nonzero" fill="url(#linear-pattern-5)" d="M 1.222656 0.660156 C 1.222656 0.664062 1.21875 0.667969 1.21875 0.675781 C 1.210938 0.6875 1.203125 0.703125 1.195312 0.714844 C 1.191406 0.730469 1.183594 0.746094 1.175781 0.761719 C 1.171875 0.769531 1.167969 0.777344 1.164062 0.785156 C 1.152344 0.808594 1.140625 0.835938 1.128906 0.859375 C 1.117188 0.894531 1.101562 0.925781 1.085938 0.960938 C 1.074219 0.992188 1.058594 1.027344 1.042969 1.0625 C 1.03125 1.09375 1.015625 1.128906 1.003906 1.164062 C 0.988281 1.195312 0.976562 1.230469 0.964844 1.261719 C 0.964844 1.265625 0.964844 1.265625 0.960938 1.269531 C 0.949219 1.300781 0.9375 1.335938 0.925781 1.371094 C 0.925781 1.371094 0.921875 1.371094 0.921875 1.371094 L 0.984375 1.367188 C 0.984375 1.367188 0.980469 1.367188 0.980469 1.363281 C 1.054688 1.355469 1.152344 1.300781 1.210938 1.234375 C 1.242188 1.203125 1.269531 1.167969 1.292969 1.125 C 1.308594 1.09375 1.328125 1.058594 1.34375 1.019531 C 1.355469 0.984375 1.371094 0.949219 1.382812 0.910156 C 1.367188 0.917969 1.347656 0.925781 1.328125 0.929688 C 1.324219 0.929688 1.320312 0.929688 1.316406 0.929688 C 1.3125 0.933594 1.308594 0.933594 1.304688 0.933594 C 1.371094 0.90625 1.414062 0.855469 1.445312 0.796875 C 1.425781 0.808594 1.398438 0.824219 1.363281 0.832031 C 1.359375 0.832031 1.355469 0.832031 1.347656 0.832031 C 1.347656 0.832031 1.347656 0.835938 1.34375 0.835938 L 1.347656 0.835938 C 1.371094 0.824219 1.390625 0.8125 1.40625 0.800781 C 1.410156 0.796875 1.414062 0.796875 1.417969 0.792969 C 1.421875 0.789062 1.425781 0.78125 1.433594 0.777344 C 1.433594 0.773438 1.4375 0.769531 1.441406 0.769531 C 1.449219 0.761719 1.453125 0.75 1.460938 0.742188 C 1.460938 0.738281 1.464844 0.734375 1.464844 0.734375 C 1.46875 0.730469 1.46875 0.726562 1.472656 0.71875 C 1.480469 0.703125 1.488281 0.683594 1.496094 0.671875 C 1.5 0.664062 1.5 0.65625 1.503906 0.648438 C 1.503906 0.648438 1.503906 0.644531 1.503906 0.640625 C 1.507812 0.632812 1.511719 0.628906 1.511719 0.621094 C 1.515625 0.613281 1.515625 0.609375 1.515625 0.601562 C 1.511719 0.605469 1.511719 0.605469 1.507812 0.609375 C 1.488281 0.621094 1.453125 0.632812 1.425781 0.636719 L 1.480469 0.628906 L 1.425781 0.636719 C 1.421875 0.636719 1.421875 0.636719 1.421875 0.636719 C 1.417969 0.636719 1.417969 0.636719 1.414062 0.636719 Z M 1.222656 0.660156 "/>
<path fill-rule="nonzero" fill="url(#linear-pattern-6)" d="M 1.4375 0.277344 C 1.421875 0.304688 1.402344 0.332031 1.382812 0.367188 C 1.382812 0.367188 1.382812 0.371094 1.378906 0.371094 C 1.363281 0.398438 1.34375 0.429688 1.324219 0.464844 C 1.308594 0.496094 1.292969 0.527344 1.273438 0.5625 C 1.257812 0.59375 1.242188 0.625 1.226562 0.660156 L 1.414062 0.636719 C 1.472656 0.613281 1.496094 0.589844 1.519531 0.554688 C 1.527344 0.546875 1.535156 0.539062 1.539062 0.527344 C 1.558594 0.496094 1.578125 0.464844 1.597656 0.429688 C 1.613281 0.398438 1.628906 0.367188 1.636719 0.335938 C 1.644531 0.320312 1.652344 0.300781 1.65625 0.285156 C 1.660156 0.273438 1.660156 0.261719 1.664062 0.25 C 1.589844 0.261719 1.5 0.273438 1.4375 0.277344 Z M 1.4375 0.277344 "/>
</svg>
