<?xml version="1.0" encoding="UTF-8" standalone="no"?>
<!DOCTYPE svg PUBLIC "-//W3C//DTD SVG 1.1//EN" "http://www.w3.org/Graphics/SVG/1.1/DTD/svg11.dtd">
<svg width="100%" height="100%" viewBox="0 0 60 60" version="1.1" xmlns="http://www.w3.org/2000/svg" xmlns:xlink="http://www.w3.org/1999/xlink" xml:space="preserve" xmlns:serif="http://www.serif.com/" style="fill-rule:evenodd;clip-rule:evenodd;stroke-linejoin:round;stroke-miterlimit:2;">
    <g transform="matrix(1,0,0,1,-109.496,4.697)">
        <clipPath id="_clip1">
            <rect x="0" y="0" width="278.292" height="49.906"/>
        </clipPath>
        <g clip-path="url(#_clip1)">
            <g transform="matrix(1,0,0,1,112.201,0.039)">
                <path d="M14.5,7.037C25.1,-0.487 36.782,-2.24 40.579,3.117C42.123,5.299 42.112,8.339 40.829,11.682C40.759,11.212 40.585,10.763 40.318,10.369C37.949,7.023 29.042,9.276 20.418,15.39C11.794,21.504 6.731,29.168 9.1,32.511C9.381,32.898 9.748,33.214 10.171,33.436C6.601,33.529 3.718,32.544 2.171,30.362C-1.629,25.005 3.883,14.562 14.496,7.037" style="fill:rgb(152,181,214);fill-rule:nonzero;"/>
            </g>
            <g transform="matrix(1,0,0,1,109.539,0)">
                <path d="M41.048,40.778C25.93,51.506 8.592,53 2.273,44.087C0.32,41.146 -0.439,37.567 0.154,34.087C0.395,34.865 0.752,35.602 1.213,36.273C6.029,43.073 20.86,40.835 34.334,31.282C47.808,21.729 54.8,8.468 49.982,1.671C49.515,1.039 48.961,0.477 48.337,0C51.785,0.598 54.882,2.481 57,5.267C63.319,14.178 56.157,30.067 41.053,40.778" style="fill:rgb(0,118,173);fill-rule:nonzero;"/>
            </g>
        </g>
    </g>
</svg>
