<?xml version="1.0" encoding="UTF-8" standalone="no"?>
<svg
   xml:space="preserve"
   viewBox="0 0 1993.481 1993.481"
   version="1.1"
   id="svg10"
   sodipodi:docname="access-logo.svg"
   width="1993.481"
   height="1993.481"
   inkscape:version="1.4.2 (ebf0e940d0, 2025-05-08)"
   xmlns:inkscape="http://www.inkscape.org/namespaces/inkscape"
   xmlns:sodipodi="http://sodipodi.sourceforge.net/DTD/sodipodi-0.dtd"
   xmlns="http://www.w3.org/2000/svg"
   xmlns:svg="http://www.w3.org/2000/svg"><defs
   id="defs10" /><sodipodi:namedview
   id="namedview10"
   pagecolor="#ffffff"
   bordercolor="#999999"
   borderopacity="1"
   inkscape:showpageshadow="0"
   inkscape:pageopacity="0"
   inkscape:pagecheckerboard="0"
   inkscape:deskcolor="#d1d1d1"
   inkscape:zoom="0.32847373"
   inkscape:cx="997.0356"
   inkscape:cy="972.68053"
   inkscape:window-width="2120"
   inkscape:window-height="1458"
   inkscape:window-x="26"
   inkscape:window-y="23"
   inkscape:window-maximized="0"
   inkscape:current-layer="svg10" />
  <path
   fill="#881421"
   d="m 463.6,1273.72 v 463.6 c 0,128 342.462,231.8 764.94,231.8 422.478,0 764.94,-103.8 764.94,-231.8 v -463.6 z"
   id="path1" />
  <path
   fill="#af2031"
   d="m 463.6,763.76 v 509.96 c 0,128 342.462,231.8 764.94,231.8 422.478,0 764.94,-103.8 764.94,-231.8 V 763.76 Z"
   id="path2" />
  <path
   fill="#c94f60"
   d="m 463.6,253.8 v 509.96 c 0,128 342.462,231.8 764.94,231.8 422.478,0 764.94,-103.8 764.94,-231.8 V 253.8 Z"
   id="path3" />
  <ellipse
   cx="1228.541"
   cy="253.79999"
   fill="#e08095"
   rx="764.94"
   ry="231.8"
   id="ellipse3" />
  <path
   d="M 1027.662,439.24 H 463.6 v 1159 h 564.062 c 46.869,-0.153 84.825,-38.109 84.978,-84.978 V 524.218 c -0.152,-46.869 -38.109,-84.825 -84.978,-84.978 z"
   opacity="0.1"
   id="path4" />
  <path
   d="M 981.302,485.6 H 463.6 v 1159 h 517.702 c 46.869,-0.153 84.825,-38.109 84.978,-84.978 V 570.578 c -0.152,-46.869 -38.109,-84.825 -84.978,-84.978 z"
   opacity="0.2"
   id="path5" />
  <path
   d="M 981.302,485.6 H 463.6 v 1066.28 h 517.702 c 46.869,-0.153 84.825,-38.109 84.978,-84.978 V 570.578 c -0.152,-46.869 -38.109,-84.825 -84.978,-84.978 z"
   opacity="0.2"
   id="path6" />
  <path
   d="M 934.943,485.6 H 463.6 v 1066.28 h 471.342 c 46.869,-0.153 84.825,-38.109 84.978,-84.978 V 570.578 c -0.152,-46.869 -38.109,-84.825 -84.977,-84.978 z"
   opacity="0.2"
   id="path7" />
  <linearGradient
   id="a"
   x1="177.1808"
   x2="842.73962"
   y1="1551.9205"
   y2="399.2002"
   gradientTransform="matrix(1,0,0,-1,0,1971.1207)"
   gradientUnits="userSpaceOnUse">
    <stop
   offset="0"
   stop-color="#b72c3f"
   id="stop7" />
    <stop
   offset=".5"
   stop-color="#b12334"
   id="stop8" />
    <stop
   offset="1"
   stop-color="#9d1623"
   id="stop9" />
  </linearGradient>
  <path
   fill="url(#a)"
   d="m 84.978,485.6 h 849.965 c 46.932,0 84.978,38.046 84.978,84.978 v 849.964 c 0,46.932 -38.046,84.978 -84.978,84.978 H 84.978 C 38.046,1505.52 0,1467.474 0,1420.542 V 570.578 C 0,523.646 38.046,485.6 84.978,485.6 Z"
   id="path9"
   style="fill:url(#a)" />
  <path
   fill="#ffffff"
   d="m 448.904,719.301 h 125.172 l 201.11,552.472 H 656.968 l -44.32,-131.755 H 405.743 l -43.532,131.755 H 244.735 Z m 137.133,335.6 -64.301,-199.951 c -5.257,-14.656 -9.198,-29.752 -11.775,-45.108 h -2.318 c -2.39,15.78 -6.255,31.302 -11.544,46.36 l -64.904,198.792 z"
   id="path10" />
</svg>
