<svg xmlns="http://www.w3.org/2000/svg" viewBox="0 0 250 148.48"><defs><style>.cls-1{fill:#004c87;}</style></defs><g id="Layer_2" data-name="Layer 2"><g id="Lager_1" data-name="Lager 1"><path d="M224.63,82.71H203.41l-25,65.75h23.3l3.55-10.31H222.8l3.55,10.33h23.33ZM214,113l2.5,7.1h-5Z"/><path d="M225.57,35.41a11.94,11.94,0,0,1,3.87-2.6,12.38,12.38,0,0,1,4.95-1A12.71,12.71,0,0,1,244.67,37l5.32,6.5v-28l-1.84-.77a43.21,43.21,0,0,0-7.38-2.38,34.25,34.25,0,0,0-7.28-.79,32.69,32.69,0,0,0-29.85,19,21,21,0,0,0-6-12.89c-4.14-4.05-10-6.11-17.54-6.11H0v1.17H110.13A33.74,33.74,0,0,0,106,14.07a32.82,32.82,0,0,0-10.87,7,32.39,32.39,0,0,0-2.75,3.1H0v1.16H91.46A32.41,32.41,0,0,0,88,31.5a31.81,31.81,0,0,0-1.6,4.77H0v1.16H86.13a34.36,34.36,0,0,0-.7,6.55L94,35.37l9.11,9.11L94,53.59,85.43,45a34.49,34.49,0,0,0,.34,4.43H0v1.17H86a31.31,31.31,0,0,0,2,6.76,33.2,33.2,0,0,0,2.81,5.22H0v1.17H91.61A32.18,32.18,0,0,0,95.1,67.8a32.52,32.52,0,0,0,10.86,7,32.13,32.13,0,0,0,4.17,1.34H0v1.17H114.73l-5.51-5.52,9.1-9.1,9.11,9.1-5.51,5.52h52.19V57.62h6c7.5,0,13.4-2,17.54-6.1a19.06,19.06,0,0,0,3.16-4.15,31.37,31.37,0,0,0,2.61,10.21A33.9,33.9,0,0,0,210.61,68a32.54,32.54,0,0,0,22.78,9.3,33.55,33.55,0,0,0,6.33-.63,47.1,47.1,0,0,0,6.8-1.84L250,73.6V46.47L244.81,52c-3.16,3.4-6.62,5.06-10.49,5.06A12,12,0,0,1,223,49.48a13.29,13.29,0,0,1-.94-5.06,13.14,13.14,0,0,1,.94-5A12.21,12.21,0,0,1,225.57,35.41Zm-117.72,4a12.94,12.94,0,0,1,1.11-2h16.48l0,0,1.12-1.13H109.81a11.24,11.24,0,0,1,.82-.87,12.44,12.44,0,0,1,4.1-2.64,13.35,13.35,0,0,1,13.35,2l6.41-6.43,9.11,9.11-9.11,9.1-1.81-1.81a12,12,0,0,1-1,4.73H107.82a12.28,12.28,0,0,1-1-5,11.92,11.92,0,0,1,1-5ZM106.2,72.83l-9.11-9.11,9.09-9.11,9.11,9.11Zm14.17-14.16,1.82-1.83a13.76,13.76,0,0,1-7.45-.72,12.88,12.88,0,0,1-4.1-2.64,12.51,12.51,0,0,1-2.21-2.86h22.69c-.07.12-.16.23-.24.36l7.69,7.69-9.14,9.1Zm32,17.5h-23.1a35.52,35.52,0,0,0,4.17-1.34,33,33,0,0,0,10.94-7,32.59,32.59,0,0,0,3.53-4.08h4.43Zm0-13.57h-3.64a32.5,32.5,0,0,0,2.83-5.22c.29-.7.56-1.42.81-2.14Zm0-28.93c-.25-.72-.52-1.44-.81-2.14a33,33,0,0,0-3.5-6.21h4.31Zm0-9.49h-5.22a31.53,31.53,0,0,0-13.72-10.06,33.74,33.74,0,0,0-4.17-1.34h23.08Zm23.73,14.7h-2V30.34h2c5,0,5.36,2,5.36,4.26s-.43,4.26-5.38,4.26Z"/><rect class="cls-1" x="79.51" y="53.24" width="12.87" height="12.87" transform="translate(-17.03 78.25) rotate(-45)"/><rect class="cls-1" x="65.77" y="51.64" width="10.01" height="10.01" transform="translate(-19.32 66.64) rotate(-45)"/><rect class="cls-1" x="73.86" y="41.52" width="10.01" height="10.01" transform="translate(-9.8 69.4) rotate(-45)"/><rect class="cls-1" x="68.8" y="25.34" width="10.01" height="10.01" transform="translate(0.16 61.08) rotate(-45)"/><rect class="cls-1" x="58.69" y="37.48" width="10.01" height="10.01" transform="translate(-11.38 57.48) rotate(-45)"/><rect class="cls-1" x="45.54" y="33.43" width="10.01" height="10.01" transform="translate(-12.37 47) rotate(-45)"/><rect class="cls-1" x="54.64" y="52.65" width="10.01" height="10.01" transform="translate(-23.3 59.06) rotate(-45)"/><rect class="cls-1" x="55.65" y="21.3" width="10.01" height="10.01" transform="translate(-0.83 50.6) rotate(-45)"/><rect class="cls-1" x="63.74" y="11.18" width="10.01" height="10.01" transform="translate(8.69 53.35) rotate(-45)"/><rect class="cls-1" x="78.92" y="15.22" width="10.01" height="10.01" transform="translate(10.28 65.27) rotate(-45)"/><rect class="cls-1" x="33.81" y="38.91" width="7.15" height="7.15" transform="translate(-19.09 38.88) rotate(-45)"/><rect class="cls-1" x="42.92" y="15.64" width="7.15" height="7.15" transform="translate(0.03 38.51) rotate(-45)"/><rect class="cls-1" x="31.65" y="25.61" width="6.44" height="6.44" transform="translate(-10.17 33.1) rotate(-45)"/><rect class="cls-1" x="20.52" y="33.7" width="6.44" height="6.44" transform="translate(-19.15 27.6) rotate(-45)"/><rect class="cls-1" x="27.6" y="11.44" width="6.44" height="6.44" transform="translate(-1.34 26.09) rotate(-45)"/><rect class="cls-1" x="22.54" y="22.58" width="6.44" height="6.44" transform="translate(-10.67 24.34) rotate(-42.76)"/><rect class="cls-1" x="44.79" y="46.85" width="6.44" height="6.44" transform="translate(-21.34 48.61) rotate(-45)"/><rect class="cls-1" x="11.41" y="8.41" width="6.44" height="6.44" transform="translate(-3.94 13.75) rotate(-45)"/><rect class="cls-1" x="17.48" y="1.33" width="6.44" height="6.44" transform="translate(2.84 15.97) rotate(-45)"/><rect class="cls-1" x="78.18" y="35.73" width="6.44" height="6.44" transform="translate(-3.7 68.96) rotate(-45)"/><path d="M120.19,82.71h23.48v1.53c0,11.22,0,22.44,0,33.67a35.17,35.17,0,0,0,.42,6,4.59,4.59,0,0,0,4.33,4.21c2.68.3,5.49.45,7-2.41a10,10,0,0,0,1-4.41c.1-12.33.09-24.67.11-37V82.73H180a6.74,6.74,0,0,1,.09.8c0,13.32.08,26.63-.15,39.94-.11,6.87-2.37,13.06-7.58,17.88a26,26,0,0,1-13,6.21,46.5,46.5,0,0,1-20.43-.45c-10.84-2.72-17.47-10.57-18.54-21.92-.14-1.4-.23-2.81-.24-4.22q0-18.5,0-37C120.14,83.6,120.17,83.22,120.19,82.71Z"/></g></g></svg>