<?xml version="1.0" encoding="UTF-8" standalone="no"?>
<svg
   id="Layer_1"
   data-name="Layer 1"
   width="535"
   height="535"
   viewBox="0 0 535 535"
   version="1.1"
   sodipodi:docname="flyway-logo.svg"
   inkscape:version="1.4.2 (ebf0e940d0, 2025-05-08)"
   xmlns:inkscape="http://www.inkscape.org/namespaces/inkscape"
   xmlns:sodipodi="http://sodipodi.sourceforge.net/DTD/sodipodi-0.dtd"
   xmlns="http://www.w3.org/2000/svg"
   xmlns:svg="http://www.w3.org/2000/svg"
   xmlns:rdf="http://www.w3.org/1999/02/22-rdf-syntax-ns#"
   xmlns:cc="http://creativecommons.org/ns#"
   xmlns:dc="http://purl.org/dc/elements/1.1/">
  <sodipodi:namedview
     id="namedview8"
     pagecolor="#ffffff"
     bordercolor="#999999"
     borderopacity="1"
     inkscape:showpageshadow="0"
     inkscape:pageopacity="0"
     inkscape:pagecheckerboard="0"
     inkscape:deskcolor="#d1d1d1"
     inkscape:zoom="1.8649485"
     inkscape:cx="476.68878"
     inkscape:cy="436.20509"
     inkscape:window-width="3736"
     inkscape:window-height="2074"
     inkscape:window-x="0"
     inkscape:window-y="0"
     inkscape:window-maximized="1"
     inkscape:current-layer="Layer_1" />
  <defs
     id="defs1">
    <style
       id="style1">.cls-1{fill:#c00;}</style>
  </defs>
  <title
     id="title1">Flyway</title>
  <path
     class="cls-1"
     d="m 187.5,374.9 a 58.6,58.6 0 0 0 9.5,-28.4 l -44.6,9.2 a 28.3,28.3 0 0 1 -5,0.5 25.1,25.1 0 0 1 -5,-49.6 l 101.2,-20.8 a 60.2,60.2 0 0 0 38.1,-25.8 61.2,61.2 0 0 0 9.8,-28.7 l -44.8,9.2 a 28.3,28.3 0 0 1 -5,0.5 25,25 0 0 1 -24.6,-20.2 c -2.7,-13.6 6.5,-26.7 20.1,-29.5 l 100,-20.5 c 19.5,-4 30.9,-20 36,-29.1 a 80.5,80.5 0 0 0 9,-26.3 L 67.6,180 v 237.8 l 80.8,-16.6 a 61.6,61.6 0 0 0 39.1,-26.3 z"
     id="path7" />
  <path
     class="cls-1"
     d="m 268.1,0.3 c -88,0 -164.9,17.8 -200.6,43.4 v 85.1 L 412.5,58 a 13.6,13.6 0 0 1 16,10.5 l 2.3,11.3 c 5.8,28.3 0.8,59.7 -13.9,86.2 -16,28.8 -40.8,47.9 -69.9,53.9 l -5.5,1.1 a 108.9,108.9 0 0 1 -18.9,67.7 c -16.3,24.2 -41.7,40.5 -70.2,46.4 l -5.3,1.1 a 110.5,110.5 0 0 1 -87.8,114 L 67.5,469 v 22.8 c 35.7,25.7 112.6,43.5 200.6,43.5 88,0 164.9,-17.8 200.6,-43.5 V 43.7 C 433,18.1 356.1,0.3 268.1,0.3 Z"
     id="path8" />
  <metadata
     id="metadata8">
    <rdf:RDF>
      <cc:Work
         rdf:about="">
        <dc:title>Flyway</dc:title>
      </cc:Work>
    </rdf:RDF>
  </metadata>
</svg>
