<?xml version="1.0" encoding="UTF-8" standalone="no"?>
<!-- Generator: Adobe Illustrator 24.0.3, SVG Export Plug-In . SVG Version: 6.00 Build 0)  -->

<svg
   version="1.1"
   id="Layer_1"
   x="0px"
   y="0px"
   viewBox="0 0 260 260"
   xml:space="preserve"
   sodipodi:docname="jakarta-logo.svg"
   width="260"
   height="260"
   inkscape:version="1.4.2 (ebf0e940d0, 2025-05-08)"
   xmlns:inkscape="http://www.inkscape.org/namespaces/inkscape"
   xmlns:sodipodi="http://sodipodi.sourceforge.net/DTD/sodipodi-0.dtd"
   xmlns="http://www.w3.org/2000/svg"
   xmlns:svg="http://www.w3.org/2000/svg"><defs
   id="defs14" /><sodipodi:namedview
   id="namedview14"
   pagecolor="#ffffff"
   bordercolor="#999999"
   borderopacity="1"
   inkscape:showpageshadow="0"
   inkscape:pageopacity="0"
   inkscape:pagecheckerboard="0"
   inkscape:deskcolor="#d1d1d1"
   inkscape:zoom="4.7605263"
   inkscape:cx="249.97236"
   inkscape:cy="160.38143"
   inkscape:window-width="2349"
   inkscape:window-height="1416"
   inkscape:window-x="26"
   inkscape:window-y="23"
   inkscape:window-maximized="0"
   inkscape:current-layer="Layer_1" />
<style
   type="text/css"
   id="style1">
	.st0{fill:#58595B;}
	.st1{fill:#FDB940;}
	.st2{fill:#FEB322;}
	.st3{fill:#F98200;}
	.st4{fill:#1B208B;}
</style>

<g
   id="g13"
   transform="translate(-120.3,-13.55)">
	<path
   class="st1"
   d="M 369.5,20.3 307,88.7 c -0.8,34.7 -9.2,86.9 -46,134.7 L 315.4,237 C 406.1,151.6 369.5,20.3 369.5,20.3 Z"
   id="path10" />
	<path
   class="st2"
   d="m 307,88.7 c 0.5,-24 -2.6,-39.6 -2.6,-39.6 l -137.9,151 94.3,23.6 c 0.1,-0.1 0.1,-0.2 0.2,-0.3 l -62.7,-15.7 z"
   id="path11" />
	<path
   class="st3"
   d="m 198.4,207.7 62.7,15.7 c 36.8,-47.7 45.2,-100 46,-134.7 z"
   id="path12" />
	<path
   class="st4"
   d="m 285.6,239.1 c 5.5,0 10.8,0.3 16.1,0.7 L 123.8,196 c 0,0 33.1,11 73.1,70.8 21.1,-17 53,-27.7 88.7,-27.7 z"
   id="path13" />
</g>

</svg>
